<?xml version="1.0" standalone="no"?>
<!DOCTYPE svg PUBLIC "-//W3C//DTD SVG 20010904//EN"
 "http://www.w3.org/TR/2001/REC-SVG-20010904/DTD/svg10.dtd">
<svg version="1.0" xmlns="http://www.w3.org/2000/svg"
 width="431.000000pt" height="515.000000pt" viewBox="0 0 431.000000 515.000000"
 preserveAspectRatio="xMidYMid meet">

<g transform="translate(0.000000,515.000000) scale(0.100000,-0.100000)"
fill="#000000" stroke="none">
<path d="M55 4953 c2 -76 7 -223 10 -328 9 -320 48 -764 96 -1093 10 -73 19
-135 19 -138 0 -2 383 -4 850 -4 l850 0 0 850 0 850 -915 0 -915 0 5 -137z"/>
<path d="M2420 4240 l0 -850 845 0 845 0 5 23 c10 45 54 386 69 532 28 267 46
570 53 860 l6 285 -911 0 -912 0 0 -850z"/>
<path d="M280 2843 c0 -21 117 -480 160 -628 332 -1146 850 -1921 1423 -2128
16 -6 17 64 17 1378 l0 1385 -800 0 c-440 0 -800 -3 -800 -7z"/>
<path d="M2420 1470 c0 -961 3 -1380 11 -1380 30 0 167 70 266 136 467 310
904 1074 1178 2057 45 165 135 531 135 555 0 9 -166 12 -795 12 l-795 0 0
-1380z"/>
</g>
</svg>
