<?xml version="1.0" encoding="utf-8"?>
<!-- Generator: Adobe Illustrator 23.0.1, SVG Export Plug-In . SVG Version: 6.00 Build 0)  -->
<svg version="1.1" id="Layer_1" xmlns="http://www.w3.org/2000/svg" xmlns:xlink="http://www.w3.org/1999/xlink" x="0px" y="0px"
	 viewBox="0 0 431 515" style="enable-background:new 0 0 431 515;" xml:space="preserve">
<style type="text/css">
	.st0{fill:#FFA500;}
</style>
<path class="st0" d="M5.5,19.7c0.2,7.6,0.7,22.3,1,32.8c0.9,32,4.8,76.4,9.6,109.3c1,7.3,1.9,13.5,1.9,13.8c0,0.2,38.3,0.4,85,0.4
	h85V91V6H96.5H5L5.5,19.7z"/>
<path class="st0" d="M242,91v85h84.5H411l0.5-2.3c1-4.5,5.4-38.6,6.9-53.2c2.8-26.7,4.6-57,5.3-86L424.3,6h-91.1H242V91z"/>
<path class="st0" d="M28,230.7c0,2.1,11.7,48,16,62.8c33.2,114.6,85,192.1,142.3,212.8c1.6,0.6,1.7-6.4,1.7-137.8V230h-80
	C64,230,28,230.3,28,230.7z"/>
<path class="st0" d="M242,368c0,96.1,0.3,138,1.1,138c3,0,16.7-7,26.6-13.6c46.7-31,90.4-107.4,117.8-205.7
	c4.5-16.5,13.5-53.1,13.5-55.5c0-0.9-16.6-1.2-79.5-1.2H242V368z"/>
</svg>
